<svg width="52" height="198" viewBox="0 0 52 198" fill="none" xmlns="http://www.w3.org/2000/svg">
<g clip-path="url(#clip0)">
<path d="M26.6543 24.7515C26.6543 24.7515 24.9043 35.0006 25.5039 37.2674C26.1036 39.5341 30.6195 41.4231 30.6195 41.4231C30.6195 41.4231 20.8657 48.3087 17.1697 46.2126C13.4861 44.1286 12.25 43.0805 12.25 43.0805C12.25 43.0805 15.1382 42.7027 15.5665 41.0575C15.9949 39.4245 15.7256 25.2511 15.7256 25.2511L26.6543 24.7515Z" fill="#E08A68"/>
<path d="M7.21079 21.3757C7.21079 21.3757 7.7615 27.9444 8.36117 30.2112C8.96084 32.478 13.8684 36.0121 15.1044 36.6459C16.3405 37.2796 18.1884 36.8774 18.1884 36.8774C18.1884 36.8774 24.0016 32.8314 24.846 31.1983C25.6904 29.5653 26.9877 22.5944 26.9877 22.5944C26.9877 22.5944 28.5174 13.5761 26.8898 11.2972C25.2621 9.01824 20.5749 4.25317 14.9943 5.64248C9.42589 7.01959 7.6636 7.72643 7.30869 12.1381C7.1496 14.0758 7.21079 21.3757 7.21079 21.3757Z" fill="#EF9E78"/>
<path d="M8.53218 17.7683L12.9134 17.817C12.9134 17.817 13.2928 17.5733 13.0481 17.0736C12.8033 16.574 9.80495 16.1718 9.16857 16.5374C8.53218 16.8908 8.27518 17.5124 8.53218 17.7683Z" fill="#330F1D"/>
<path d="M23.7336 18.0853L18.7649 18.0365C18.7649 18.0365 18.3365 17.744 18.6303 17.1834C18.924 16.6229 22.3262 16.2329 23.036 16.6594C23.7458 17.086 24.0273 17.8172 23.7336 18.0853Z" fill="#330F1D"/>
<path d="M14.5783 171.506C14.5783 171.506 8.49592 180.743 4.99581 181.56C4.99581 181.56 1.89955 184.229 3.5517 186.081C5.20385 187.934 8.09206 187.934 9.94003 187.519C11.8002 187.105 17.9805 180.951 17.9805 180.951L18.3966 179.927L19.0208 180.951L21.2848 179.305L20.0488 170.884L14.5783 171.506Z" fill="#64342F"/>
<path d="M32.1992 175.199L32.4073 181.974L34.6713 185.46L35.0874 185.667C35.0874 185.667 35.9074 193.674 36.1154 194.088C36.3235 194.502 36.3235 195.526 37.5595 196.55C38.7956 197.574 41.8919 199.012 43.9479 196.964C46.0039 194.917 46.2119 192.857 46.2119 192.857C46.2119 192.857 40.4355 179.513 40.2397 178.282C40.0317 177.051 39.2117 174.175 39.2117 174.175L32.1992 175.199Z" fill="#64342F"/>
<path d="M12.4728 20.7093C12.4807 19.9151 12.0269 19.2667 11.4592 19.2611C10.8914 19.2554 10.4247 19.8947 10.4167 20.6889C10.4088 21.4831 10.8626 22.1315 11.4303 22.1372C11.9981 22.1428 12.4648 21.5035 12.4728 20.7093Z" fill="#2B203E"/>
<path d="M21.754 20.7997C21.762 20.0054 21.3082 19.357 20.7404 19.3514C20.1727 19.3458 19.706 19.985 19.698 20.7792C19.69 21.5734 20.1438 22.2219 20.7116 22.2275C21.2794 22.2331 21.7461 21.5939 21.754 20.7997Z" fill="#2B203E"/>
<path d="M14.6503 26.6772C14.1118 26.5797 13.451 26.4091 13.2552 25.9825C13.0961 25.6413 13.2552 25.2148 13.7202 24.6785C14.5402 23.7523 13.8793 18.9995 13.5489 17.2445L13.9527 17.1958C13.9527 17.208 14.2465 18.8167 14.4056 20.5472C14.6258 22.8993 14.5035 24.3617 14.0384 24.8857C13.659 25.3123 13.5244 25.6413 13.6223 25.8607C13.7202 26.08 14.0629 26.2263 14.7115 26.3481L14.6503 26.6772Z" fill="#F07A6E"/>
<path d="M13.5117 28.8829L21.0015 27.4326C21.0015 27.4326 21.8337 27.4326 20.7934 28.6269C19.7532 29.8212 15.4331 30.2843 15.4331 30.2843C15.4331 30.2843 13.5117 30.0406 13.5117 28.8829Z" fill="white"/>
<path d="M6.55051 87.4163C6.55051 87.4163 4.73926 94.3384 4.58016 101.931C4.43331 108.804 12.2657 161.001 13.7466 170.774C13.8812 171.701 14.6399 172.408 15.5823 172.481L17.981 172.688C19.523 172.822 20.8325 171.591 20.7835 170.043L19.2048 115.994L31.7856 175.6C31.7856 175.6 38.0883 178.306 39.8261 174.784C40.6216 173.163 38.2719 101.833 36.8767 95.4352C35.4816 89.0371 30.4027 84.6255 30.4027 84.6255L6.55051 87.4163Z" fill="#222A4E"/>
<path d="M13.3769 141.294C12.0184 141.294 10.6845 141.209 9.375 141.051C11.2474 154.176 13.1076 166.521 13.744 170.774C13.8786 171.701 14.6374 172.408 15.5798 172.481L17.9784 172.688C19.5204 172.822 20.8299 171.591 20.781 170.043L19.9243 140.709C17.8193 141.197 15.6287 141.38 13.3769 141.294Z" fill="#161E3A"/>
<path d="M36.5217 131.752C33.5601 134.933 30.0478 137.175 25.9847 138.492C25.3728 138.808 24.7609 139.101 24.1367 139.357L31.7856 175.601C31.7856 175.601 38.0882 178.306 39.8261 174.784C40.2789 173.858 39.7159 150.471 38.8837 129.242C38.1617 130.119 37.3784 130.96 36.5217 131.752Z" fill="#161E3A"/>
<path d="M10.3549 43.0073C10.3549 43.0073 0.870318 65.1752 0.662269 68.4657C0.45422 71.744 -0.157689 73.3892 0.0381223 76.2653C0.246171 79.1292 5.60649 91.6573 5.60649 91.6573L8.0786 87.7575L10.3549 43.0073Z" fill="#CED0D8"/>
<path d="M27.9417 20.8639C27.9417 20.8639 25.6776 20.023 25.9102 17.7684C26.1427 15.5139 25.3594 10.5782 24.7475 9.95666C24.1356 9.33513 11.9586 10.6513 8.05466 9.2742L7.16127 16.4523L6.62279 8.33581C6.62279 8.33581 4.77483 7.70209 6.23117 5.66688C7.69975 3.61949 9.59667 -0.0487547 15.165 -7.28227e-06C20.7334 0.060927 27.7336 0.743391 30.1813 3.43669C32.6289 6.12999 35.3091 6.15436 35.3091 6.15436L33.2286 8.39674C33.2286 8.39674 32.323 16.5985 30.6463 19.5599L27.9417 20.8639Z" fill="#3D1623"/>
<path d="M30.166 3.43669C27.7184 0.743392 20.7182 0.0609271 15.162 -7.27869e-06C9.59368 -0.0487547 7.69676 3.61949 6.24042 5.6547C4.77184 7.68991 6.63204 8.32362 6.63204 8.32362V8.38456C7.15828 8.62829 7.63557 8.95734 8.05167 9.35951L8.06391 9.26201C11.9679 10.6391 24.1449 9.32294 24.7568 9.94448C24.769 9.95666 24.7813 9.98104 24.8057 10.0054C25.8093 9.10358 27.131 8.54298 28.4894 8.55517C30.3741 8.57955 31.9528 9.5545 32.8829 11.0047C33.1154 9.48137 33.2378 8.38456 33.2378 8.38456L35.3183 6.14217C35.2938 6.15436 32.6137 6.12999 30.166 3.43669Z" fill="#330F1D"/>
<path d="M7.67578 87.6846C7.67578 87.6846 7.67578 90.8288 11.1759 92.6812C14.676 94.5336 19.8283 95.5573 22.5084 94.9358C25.1886 94.3142 33.021 90.4144 33.4371 88.1599L33.3637 88.233L7.67578 87.6846Z" fill="#262728"/>
<path d="M24.7321 90.9467L23.5273 91.2217L24.4022 95.0228L25.607 94.7478L24.7321 90.9467Z" fill="#222A4E"/>
<path d="M14.1903 90.4304L13.0625 89.9268L11.46 93.4849L12.5878 93.9886L14.1903 90.4304Z" fill="#222A4E"/>
<path d="M28.2011 89.5286L27.0859 90.0596L28.7754 93.578L29.8906 93.047L28.2011 89.5286Z" fill="#222A4E"/>
<path d="M10.6912 89.0955L9.78516 88.2583L7.12135 91.1169L8.02738 91.9541L10.6912 89.0955Z" fill="#222A4E"/>
<path d="M28.3685 19.2189C27.4751 19.2067 26.6551 18.9874 25.9453 18.5974C26.2513 20.2304 27.9401 20.8641 27.9401 20.8641L30.6325 19.5602C30.8161 19.2433 30.9874 18.8655 31.1465 18.439C30.3021 18.9386 29.3353 19.2189 28.3685 19.2189Z" fill="#330F1D"/>
<path d="M27.0241 19.1089C27.0241 19.1089 27.7706 16.964 29.6063 17.9999C31.4543 19.048 31.0137 22.1191 29.9612 23.1306C28.921 24.1421 27.0486 26.1773 26.6325 25.9701C26.2164 25.763 25.8125 25.1414 25.8125 25.1414L27.0241 19.1089Z" fill="#EF9E78"/>
<path d="M35.6996 91.4502L31.3673 94.1191C31.3673 94.1191 29.5071 95.1428 30.3393 98.6405C31.1715 102.138 36.3115 105.002 36.3115 105.002L37.5476 95.7643L38.5756 93.9119L35.6996 91.4502Z" fill="#EF9E78"/>
<path d="M13.8558 41.1548L18.2983 46.5292L28.15 40.2651L40.8777 46.4439C40.8777 46.4439 35.5174 66.5035 35.2726 70.6104C35.1258 73.1331 35.2481 79.1534 35.3583 83.4066C35.444 86.2827 33.6449 88.8785 30.9158 89.8047C27.4891 90.9747 22.8386 92.2665 19.5955 91.9984C16.9276 91.779 14.0394 91.1209 11.7141 90.475C8.91159 89.6951 6.89229 87.2699 6.65977 84.3816C6.03562 76.5942 4.98314 61.1534 5.94995 55.7303C7.25944 48.3572 10.5637 42.995 10.5637 42.995L13.8558 41.1548Z" fill="#DADEEA"/>
<path d="M35.2714 70.6106C35.2959 70.1597 35.3938 69.5138 35.5284 68.7217C32.6402 71.6953 29.2624 73.8158 25.3707 75.071C21.4667 77.1062 17.269 78.0446 12.7654 77.874C10.5013 77.8618 8.29845 77.6425 6.14453 77.2037C6.31587 79.9092 6.51168 82.3953 6.67077 84.394C6.9033 87.2823 8.9226 89.7075 11.7251 90.4874C14.0504 91.1333 16.9386 91.7914 19.6065 92.0108C22.8619 92.2789 27.5001 90.9871 30.9268 89.8171C33.6559 88.8788 35.455 86.2829 35.3693 83.419C35.2469 79.1536 35.1245 73.1333 35.2714 70.6106Z" fill="#CED0D8"/>
<path d="M18.1886 46.4927L14.6763 45.0547L11.9961 46.4927L14.6763 42.3857L18.1886 46.4927Z" fill="#BABBBF"/>
<path d="M19.0195 47.0532L19.6682 43.5678L27.1579 36.4507L30.4133 41.4107L23.5354 48.735L19.0195 47.0532Z" fill="#DADEEA"/>
<path d="M15.8144 38.084L13.8563 39.717C13.0119 41.5572 11.9961 46.4929 11.9961 46.4929L14.4682 43.4096L17.7848 46.3101C17.7848 46.3223 14.5294 42.2763 15.8144 38.084Z" fill="#DADEEA"/>
<path d="M40.8511 46.4932C40.8511 46.4932 51.3637 69.2826 51.9878 74.4133C52.612 79.5439 38.1709 96.374 38.1709 96.374C38.1709 96.374 32.6026 95.5575 32.3945 92.6814L42.0872 73.3896L35.4908 63.1161C35.4908 63.1161 33.2267 49.3693 40.8511 46.4932Z" fill="#DADEEA"/>
<path d="M23.9512 46.9072L19.6311 43.6167L18.3828 46.4928L20.6591 45.6763L23.9512 46.9072Z" fill="#BABBBF"/>
<path d="M31.9932 54.2925H23.1328V55.5233H31.9932V54.2925Z" fill="#CED0D8"/>
<path d="M19.436 95.7643L15.2138 95.3134C14.8222 95.2768 14.5407 94.9234 14.5774 94.5334L14.7977 92.4738C14.8344 92.0839 15.1893 91.8036 15.581 91.8401L19.8031 92.291C20.1948 92.3276 20.4762 92.681 20.4395 93.071L20.2192 95.1306C20.1825 95.5327 19.8276 95.813 19.436 95.7643Z" fill="#CED0D8"/>
<path d="M19.2373 95.4108L15.4679 95.0087C15.1375 94.9721 14.8927 94.6674 14.9294 94.3384L15.113 92.6932C15.1497 92.3641 15.4557 92.1204 15.7861 92.157L19.5555 92.5591C19.8859 92.5957 20.1307 92.9004 20.0939 93.2294L19.9104 94.8746C19.8736 95.2037 19.5799 95.4474 19.2373 95.4108Z" fill="#262728"/>
<path d="M13.9895 172.53C13.2797 173.09 12.374 173.383 11.5786 173.797C10.8076 174.199 10.061 174.687 9.49806 175.345C9.19211 175.698 8.86168 176.137 8.94735 176.637C8.9963 176.905 9.19211 177.136 9.48583 177.124C9.70611 177.112 9.93864 177.014 10.1467 176.941C10.9544 176.661 11.7499 176.271 12.3863 175.686C12.7412 175.369 13.0104 174.979 13.2307 174.565C13.451 174.163 13.659 173.736 14.0262 173.444C13.8426 173.334 13.6468 173.224 13.4632 173.115C13.1328 174.358 13.2674 175.698 13.8426 176.856C13.9772 177.136 14.1486 177.502 14.528 177.49C14.8462 177.478 15.0542 177.173 15.1154 176.893C15.25 176.235 15.2622 175.516 15.2133 174.857C15.1643 174.077 15.0052 173.298 14.7605 172.554C14.6993 172.383 14.528 172.262 14.3444 172.323C14.1731 172.371 14.0507 172.566 14.1119 172.737C14.479 173.834 14.6259 174.979 14.5402 176.125C14.528 176.344 14.5157 176.649 14.4423 176.82C14.4423 176.832 14.4301 176.868 14.4301 176.844C14.4301 176.88 14.3566 176.844 14.4423 176.844C14.4545 176.844 14.6503 176.734 14.6136 176.844C14.6259 176.82 14.6259 176.905 14.6136 176.832C14.6014 176.783 14.5524 176.722 14.528 176.685C14.4912 176.612 14.4545 176.551 14.4178 176.478C14.2098 176.04 14.0629 175.54 14.0017 175.052C13.9405 174.467 13.9772 173.882 14.1241 173.31C14.222 172.956 13.8059 172.773 13.5611 172.981C12.9492 173.48 12.7534 174.26 12.2761 174.845C11.7988 175.43 11.1502 175.832 10.4649 176.113C10.318 176.174 10.1589 176.235 10.0121 176.283C9.9264 176.32 9.8285 176.344 9.74283 176.369C9.69388 176.381 9.65716 176.393 9.60821 176.405C9.58373 176.417 9.54702 176.43 9.52254 176.43C9.4124 176.442 9.44911 176.49 9.65716 176.539C9.64492 176.576 9.64492 176.454 9.64492 176.466C9.64492 176.43 9.64492 176.43 9.65716 176.381C9.68164 176.295 9.73059 176.21 9.77954 176.137C9.87745 175.979 9.99983 175.845 10.1222 175.698C10.6485 175.126 11.3093 174.711 11.9947 174.346C12.8513 173.907 13.7692 173.578 14.528 172.981C14.6748 172.871 14.6503 172.615 14.528 172.505C14.3321 172.383 14.1363 172.408 13.9895 172.53Z" fill="#3F1D1B"/>
<path d="M37.1075 176.795C36.9729 177.965 36.4099 179.049 36.055 180.158C35.6878 181.304 35.4064 182.51 35.492 183.717C35.5287 184.229 35.6022 184.838 35.9816 185.228C36.1896 185.435 36.52 185.594 36.8015 185.447C37.0585 185.313 37.1809 184.997 37.3033 184.753C37.8418 183.705 38.2579 182.584 38.3313 181.414C38.368 180.768 38.2823 180.122 38.0988 179.5C37.9274 178.891 37.7071 178.269 37.7683 177.623C37.5603 177.684 37.34 177.733 37.132 177.794C37.9641 179.244 39.3103 180.353 40.8768 180.914C41.2562 181.048 41.7825 181.28 42.1129 180.926C42.4311 180.585 42.1863 180.085 41.9538 179.781C41.4276 179.074 40.8279 178.428 40.1548 177.855C39.396 177.209 38.5638 176.649 37.6704 176.198C37.5113 176.112 37.3033 176.149 37.2054 176.319C37.1197 176.466 37.1687 176.697 37.3278 176.783C38.7229 177.489 39.9712 178.452 40.9747 179.646C41.0849 179.781 41.195 179.915 41.3052 180.049C41.4031 180.171 41.5255 180.317 41.5622 180.451C41.5622 180.439 41.5867 180.56 41.5744 180.512C41.5744 180.512 41.5744 180.512 41.5744 180.5C41.5744 180.548 41.5744 180.548 41.5744 180.512C41.5744 180.512 41.6478 180.39 41.6478 180.439C41.6478 180.426 41.7335 180.5 41.5989 180.426C41.5377 180.39 41.4398 180.378 41.3786 180.366C41.2685 180.329 41.1706 180.305 41.0604 180.268C40.4118 180.036 39.7876 179.683 39.2492 179.257C38.625 178.757 38.0988 178.147 37.6949 177.441C37.6215 177.307 37.4501 177.246 37.3155 177.282C37.1564 177.319 37.083 177.453 37.0708 177.611C36.9606 178.684 37.548 179.671 37.6215 180.731C37.6949 181.767 37.4134 182.791 37.0096 183.729C36.8994 183.973 36.7893 184.217 36.6669 184.448C36.6057 184.558 36.5445 184.68 36.4833 184.789C36.3732 184.984 36.5078 184.716 36.5568 184.826C36.5568 184.814 36.4833 184.789 36.4833 184.789C36.3487 184.68 36.2875 184.497 36.2386 184.326C36.1774 184.095 36.1529 183.851 36.1407 183.607C36.0795 182.51 36.3242 181.438 36.6669 180.402C37.0585 179.208 37.6215 178.062 37.7683 176.795C37.7928 176.612 37.597 176.454 37.4257 176.454C37.2543 176.454 37.132 176.612 37.1075 176.795Z" fill="#3F1D1B"/>
</g>
<defs>
<clipPath id="clip0">
<rect width="52" height="198" fill="white"/>
</clipPath>
</defs>
</svg>