<svg width="556" height="397" viewBox="0 0 556 397" fill="none" xmlns="http://www.w3.org/2000/svg">
<path d="M72.6543 178.518H44.5078V198.921V203.239L48.6777 198.921H72.6543V178.518Z" fill="#78C2FF"/>
<path d="M30.6573 186.56C30.6573 186.56 37.5077 189.985 35.8696 199.07C34.2314 208.303 33.3379 209.494 35.2739 213.068C37.2099 216.643 39.4437 231.982 37.6567 234.811C35.8696 237.641 16.3606 222.004 13.68 208.899C10.9994 195.793 15.4671 189.985 16.9563 187.751C18.5945 185.667 24.5514 183.433 30.6573 186.56Z" fill="#0E2D3D"/>
<path d="M32.5938 219.77C32.5938 219.77 36.1679 220.514 38.1039 223.344C39.4442 225.429 39.5931 229.896 39.7421 230.641C39.891 231.534 42.5716 241.066 42.5716 241.066L35.2744 245.98L32.5938 219.77Z" fill="#285173"/>
<path d="M59.5489 383.139C59.5489 383.139 64.3144 389.542 63.7187 390.585C63.123 391.627 58.0596 391.776 54.9322 390.585C51.8048 389.393 51.8048 381.947 50.4645 378.671C49.8688 377.331 51.0602 373.31 52.8473 373.012C54.6344 372.714 56.4215 373.608 56.4215 373.608C56.4215 373.608 54.6344 378.224 59.5489 383.139Z" fill="#1D3B54"/>
<path d="M56.5702 373.607C56.5702 373.607 57.6127 376.288 57.9105 378.969C58.2084 381.202 61.3358 385.67 61.1869 386.266C61.0379 386.862 57.1659 387.308 55.5278 385.819C53.8896 384.33 52.8472 380.011 52.5493 377.33C52.2515 374.948 51.8047 373.756 51.8047 373.756C51.8047 373.756 54.9321 371.969 56.5702 373.607Z" fill="#EEA886"/>
<path d="M17.999 383.288C17.999 383.288 22.6157 389.542 21.871 390.585C21.2753 391.627 16.212 391.776 13.0846 390.585C9.95718 389.393 9.95718 381.947 8.61687 378.671C8.02118 377.331 9.21257 373.31 10.9996 373.012C12.7867 372.714 14.7227 373.608 14.7227 373.608C14.7227 373.608 13.0846 378.373 17.999 383.288Z" fill="#1D3B54"/>
<path d="M14.8715 373.756C14.8715 373.756 15.1693 376.735 15.765 378.82C16.3607 380.905 19.4881 385.67 19.3392 386.266C19.1903 386.862 15.3183 387.308 13.6801 385.819C12.0419 384.33 10.8506 380.011 10.7016 377.331C10.5527 374.799 11.1484 373.012 11.1484 373.012C11.1484 373.012 13.3823 372.118 14.8715 373.756Z" fill="#EEA886"/>
<path d="M37.9552 269.063C37.9552 269.063 42.1251 288.125 43.0186 292.891C43.9121 297.657 46.5928 320.889 46.8906 324.909C47.1884 328.93 51.2094 343.823 50.9115 345.163C50.7626 346.503 56.8685 374.948 56.8685 374.948C56.8685 374.948 54.7835 376.586 52.5497 375.097C51.3583 374.352 39.1466 348.588 39.1466 341.44C39.1466 331.76 31.9983 318.953 30.9558 316.719C22.3183 296.465 23.9564 290.21 22.914 288.87C21.7226 287.53 21.7226 289.615 20.9779 292.593C20.3823 295.572 18.893 320.74 17.9995 323.867C17.1059 326.994 17.8506 337.866 17.4038 343.376C16.957 348.886 14.8721 373.458 14.8721 373.458C14.8721 373.458 13.2339 375.99 11.0001 373.458C10.5533 373.31 7.12808 346.206 7.12808 339.802C6.97916 333.249 6.97916 324.314 6.68132 321.484C4.89424 294.529 0.724385 290.806 7.42593 271.744C20.0844 236.151 37.9552 269.063 37.9552 269.063Z" fill="#EEA886"/>
<path d="M10.404 263.702C10.404 263.702 -1.21202 280.084 3.70245 314.783C3.70245 314.783 31.4022 318.506 46.1456 310.464C46.1456 310.464 40.0397 274.573 37.8059 269.063C35.7209 263.553 10.404 263.702 10.404 263.702Z" fill="#1D3B54"/>
<path d="M50.3154 378.224V384.926H51.209V379.713L50.3154 378.224Z" fill="#1D3B54"/>
<path d="M8.61719 378.224V384.926H9.51073V379.713L8.61719 378.224Z" fill="#1D3B54"/>
<path d="M26.0406 217.387C26.0406 217.387 30.3594 219.472 31.8486 219.77C33.3378 220.067 39.1459 227.662 40.1883 230.343C41.2308 233.024 40.1883 237.194 38.1034 242.108C36.0185 246.874 37.9545 248.512 37.0609 253.426C36.1674 258.341 35.2738 268.467 35.4228 271.148C35.5717 273.829 11.2972 274.275 5.78704 269.51C5.78704 269.51 11.2972 261.17 12.0418 259.979C12.7864 258.787 12.1907 252.235 11.4461 250.597C10.7015 248.661 6.38273 234.513 6.38273 234.513C6.38273 234.513 2.80857 223.642 6.08489 221.11C8.91443 218.876 16.5095 218.131 17.8498 217.685C19.1901 217.089 23.2111 216.94 26.0406 217.387Z" fill="#EDDAD3"/>
<path d="M27.381 226.918L30.0616 223.791L27.8277 215.749C27.8277 215.749 26.9342 220.217 27.381 226.918Z" fill="#D6C5BE"/>
<path d="M28.1263 212.324C28.1263 212.324 27.9774 213.366 27.8284 214.856C27.8284 215.451 27.6795 216.196 27.6795 217.089C27.5306 219.323 27.3817 221.557 27.3817 222.748C27.3817 222.748 22.914 227.216 17.8506 217.536C17.8506 217.536 19.9355 213.515 18.4463 208.154C16.8081 202.644 28.1263 212.324 28.1263 212.324Z" fill="#EEA886"/>
<path d="M27.3818 222.897V226.918L22.3184 223.046L27.3818 222.897Z" fill="#EEA886"/>
<path d="M27.3816 226.918L25.2967 224.238L18.1484 217.089L15.7656 219.323L27.3816 226.918Z" fill="#D6C5BE"/>
<path d="M17.1057 217.834C17.1057 217.834 23.2116 227.067 23.3605 231.088C23.6583 235.109 21.1266 265.34 19.0417 275.021C16.9568 284.701 2.3623 273.978 2.3623 273.978C2.3623 273.978 12.1912 258.043 8.46816 245.236C4.74508 232.428 3.25584 227.365 3.25584 227.365C3.25584 227.365 4.59615 220.217 9.21277 219.323C13.3826 218.281 17.1057 217.834 17.1057 217.834Z" fill="#285173"/>
<path d="M40.4871 231.386C40.4871 231.386 41.5296 235.258 37.3597 243.746C37.3597 243.746 37.3597 254.618 37.5086 258.043C37.6576 261.468 40.0403 273.68 40.0403 273.68L34.2323 276.807C33.3388 277.254 32.2963 276.658 32.4453 275.616C33.6366 265.787 37.5086 228.705 29.1689 218.727L32.4453 219.77C32.5942 219.77 38.5511 224.535 40.4871 231.386Z" fill="#285173"/>
<path d="M30.062 223.791L33.3383 224.833L27.8281 215.749L30.062 223.791Z" fill="#FAE6DE"/>
<path d="M25.2967 224.238L22.3183 228.259L16.0635 217.983L18.1484 217.089L25.2967 224.238Z" fill="#FAE6DE"/>
<path d="M30.482 239.626L29.6641 240.272L37.6059 250.321L38.4239 249.675L30.482 239.626Z" fill="#EB4747"/>
<path d="M29.1685 249.108C29.1685 249.108 29.9131 249.108 30.3599 248.81C31.2534 248.214 31.5513 246.576 33.0405 246.725C34.5297 246.874 35.2743 251.639 34.8276 252.533C34.3808 253.426 32.2959 253.873 29.1685 253.277C26.19 252.533 29.1685 249.108 29.1685 249.108Z" fill="#EEA886"/>
<path d="M32.5939 246.725C32.5939 246.725 34.8277 245.98 37.3594 245.384C39.5933 244.938 42.2739 244.789 42.5717 245.087C42.8696 245.533 40.3379 245.831 38.253 246.576C36.317 247.172 36.7637 247.32 36.7637 247.32C36.7637 247.32 36.6148 247.32 38.9976 247.023C41.5293 246.725 44.061 246.725 44.2099 247.32C44.3588 247.618 44.2099 247.767 43.3164 247.916C43.9121 247.916 43.9121 248.065 43.9121 248.214C44.061 249.256 40.4868 250.15 38.9976 250.597C40.04 250.299 40.9336 250.299 40.4868 251.044C40.04 251.937 34.9767 252.98 33.0407 253.426C31.1047 254.022 32.5939 246.725 32.5939 246.725Z" fill="#EEA886"/>
<path d="M10.1063 219.323C8.61705 218.876 4.14935 220.366 3.40473 224.982C2.66012 229.599 2.36227 234.513 1.61765 237.045C0.873037 239.428 -0.914043 250.299 0.57519 251.193C2.06442 252.086 4.89396 252.98 8.91489 252.98C13.0847 252.98 29.0195 253.724 29.0195 253.724L30.062 248.065C30.062 248.065 23.9561 247.767 20.8288 247.321C17.9992 246.874 14.1272 245.683 9.65951 245.236C9.65951 245.236 10.553 238.534 11.2977 236.598C12.0423 234.513 16.9567 221.557 10.1063 219.323Z" fill="#285173"/>
<path d="M39.2954 248.363L40.04 250.15L38.5508 249.107L39.2954 248.363Z" fill="#EEA886"/>
<path d="M30.5088 257.894L46.5925 254.767L58.5064 229.152L41.3802 230.939L30.5088 257.894Z" fill="#E8734D"/>
<path d="M48.6769 250.448C48.6769 250.448 49.5705 249.703 50.3151 248.512C51.0597 247.321 53.7403 243.002 53.4425 242.704C53.1446 242.406 49.4216 242.406 48.6769 243.002C47.9323 243.597 49.4216 243.895 49.4216 243.895C49.4216 243.895 47.3366 244.044 47.4856 244.64C47.6345 245.236 48.8259 245.087 48.8259 245.087C48.8259 245.087 47.1877 245.385 47.3366 245.98C47.6345 246.427 48.3791 246.427 48.3791 246.427C48.3791 246.427 46.8899 246.576 47.0388 247.172C47.1877 247.767 49.5705 248.214 49.2726 248.81C49.1237 249.108 48.6769 250.448 48.6769 250.448Z" fill="#EEA886"/>
<path d="M29.6149 187.602C29.6149 187.602 39.5928 190.73 34.2315 208.005C28.7214 225.28 15.1694 206.069 16.5097 195.495C17.9989 184.922 29.6149 187.602 29.6149 187.602Z" fill="#EEA987"/>
<path d="M35.2747 197.729C35.2747 197.729 30.3602 202.644 22.0205 203.239C22.0205 203.239 18.8931 206.962 18.5953 208.452C18.5953 208.452 11.1491 195.793 20.2334 188.198C29.3178 180.603 38.551 194.602 35.2747 197.729Z" fill="#0E2D3D"/>
<path d="M22.0202 203.537C22.0202 202.346 21.1267 199.367 19.3396 200.261C17.4036 201.005 19.4885 206.962 20.6799 206.516C20.6799 206.516 22.1691 206.516 22.0202 203.537Z" fill="#EEA987"/>
<path d="M27.828 215.004C27.828 215.6 27.6791 216.345 27.6791 217.238C21.8711 214.409 20.9775 210.239 20.9775 210.09C25.1474 215.302 27.828 215.004 27.828 215.004Z" fill="#A77860"/>
<path d="M194.772 243.449C194.772 243.449 193.431 253.427 200.728 261.171C208.026 268.915 224.258 266.085 224.258 266.085C224.258 266.085 221.578 257.001 215.621 253.278C209.813 249.555 198.197 248.214 194.772 243.449Z" fill="#869135"/>
<path d="M203.26 224.386C203.26 224.386 197.303 235.555 202.366 247.916C207.43 260.128 227.981 264.149 227.981 264.149C227.981 264.149 228.875 252.235 223.513 245.235C218.152 238.236 205.047 231.535 203.26 224.386Z" fill="#48753A"/>
<path d="M470.726 80.229C470.726 80.229 480.853 95.5681 472.364 103.759C463.876 111.95 462.833 102.865 462.833 102.865C462.833 102.865 458.217 103.163 467.301 92.7386C471.471 87.6752 470.726 80.229 470.726 80.229Z" fill="#BBD070"/>
<path d="M497.83 72.3359C497.83 72.3359 505.127 86.3347 488.001 99.44C471.024 112.545 471.024 121.481 471.024 121.481C471.024 121.481 459.11 89.1643 497.83 72.3359Z" fill="#97A43C"/>
<path d="M468.939 115.523C462.535 115.375 471.917 98.993 482.491 95.5678C493.065 92.2915 501.404 93.6318 507.808 89.6108C507.808 89.6108 500.809 116.417 468.939 115.523Z" fill="#48753A"/>
<path d="M212.046 63.2515H210.706V226.025H212.046V63.2515Z" fill="#78C2FF"/>
<path d="M223.216 180.305H110.928V181.645H223.216V180.305Z" fill="#78C2FF"/>
<path d="M490.979 308.826H270.424C260.148 308.826 251.809 300.188 251.809 289.466V134.139C251.809 123.416 260.148 114.779 270.424 114.779H490.979C501.255 114.779 509.595 123.416 509.595 134.139V289.466C509.446 300.188 501.255 308.826 490.979 308.826ZM270.424 116.417C261.042 116.417 253.447 124.459 253.447 134.139V289.466C253.447 299.295 261.042 307.188 270.424 307.188H490.979C500.362 307.188 507.957 299.146 507.957 289.466V134.139C507.957 124.31 500.362 116.417 490.979 116.417H270.424Z" fill="#4DA8F2"/>
<path d="M415.922 239.725C415.326 239.725 414.879 239.725 414.284 239.725V238.087C416.666 238.087 419.198 238.087 421.581 238.087V239.725C419.645 239.725 417.709 239.725 415.922 239.725ZM406.838 239.577C404.306 239.577 401.923 239.428 399.54 239.279L399.689 237.641C402.072 237.789 404.604 237.938 406.986 237.938L406.838 239.577ZM429.027 239.428V237.789C431.41 237.641 433.942 237.492 436.324 237.343L436.473 238.981C433.942 239.279 431.41 239.428 429.027 239.428ZM392.094 238.832C387.478 238.385 384.797 238.087 384.797 238.087L384.946 236.449C384.946 236.449 387.626 236.747 392.243 237.194L392.094 238.832ZM443.622 238.385L443.473 236.747C445.855 236.449 448.387 236.151 450.77 235.853L450.919 237.492C448.685 237.938 446.153 238.236 443.622 238.385ZM458.365 236.449L458.067 234.811C460.45 234.364 462.982 233.917 465.215 233.471L465.513 235.109C463.279 235.705 460.748 236.151 458.365 236.449ZM472.811 233.62L472.364 231.981C474.747 231.386 477.129 230.79 479.363 230.045L479.81 231.684C477.576 232.279 475.193 233.024 472.811 233.62ZM486.958 229.45L486.363 227.961C488.745 227.216 490.979 226.322 493.213 225.429L493.809 226.918C491.724 227.812 489.341 228.705 486.958 229.45ZM500.659 223.94L499.915 222.45C502.148 221.408 504.382 220.217 506.467 219.174L507.212 220.663C505.127 221.706 503.042 222.897 500.659 223.94ZM513.615 216.791L512.722 215.451C514.807 214.111 516.743 212.77 518.679 211.281L519.721 212.621C517.785 213.962 515.7 215.451 513.615 216.791ZM525.38 207.707L524.338 206.516C526.125 204.877 527.912 203.09 529.401 201.303L530.593 202.346C528.955 204.282 527.168 206.069 525.38 207.707ZM535.358 196.687L534.018 195.644C535.507 193.708 536.848 191.623 538.039 189.687L539.379 190.581C538.188 192.666 536.848 194.751 535.358 196.687ZM542.953 184.028L541.464 183.284C542.507 181.05 543.4 178.816 544.294 176.582L545.783 177.178C544.889 179.56 543.996 181.794 542.953 184.028ZM547.868 170.178L546.23 169.732C546.825 167.498 547.272 165.115 547.719 162.583L549.357 162.881C549.059 165.413 548.612 167.796 547.868 170.178ZM550.4 155.584L548.761 155.435C549.059 153.052 549.208 150.669 549.208 148.138H550.846C550.846 150.669 550.697 153.201 550.4 155.584ZM549.208 140.84C549.059 138.458 548.91 136.075 548.761 133.543L550.4 133.394C550.697 135.926 550.846 138.309 550.846 140.84H549.208ZM547.868 126.395C547.57 124.012 547.123 121.629 546.676 119.247L548.315 118.949C548.761 121.331 549.208 123.863 549.506 126.246L547.868 126.395ZM545.336 111.949C545.187 111.056 544.889 110.162 544.74 109.269C544.443 107.779 543.996 106.29 543.549 104.801L545.187 104.354C545.634 105.843 546.081 107.333 546.379 108.822C546.528 109.715 546.825 110.609 546.974 111.503L545.336 111.949ZM541.166 98.0994C540.273 95.8656 539.379 93.6317 538.337 91.3979L539.826 90.6533C540.868 92.8871 541.911 95.121 542.804 97.3548L541.166 98.0994ZM39.5927 87.9726L38.1035 87.228C39.146 84.9942 40.1884 82.7603 41.2309 80.5265L42.7201 81.2711C41.5288 83.5049 40.4863 85.7388 39.5927 87.9726ZM534.763 84.9942C533.422 82.9092 532.082 80.9732 530.593 79.0372L531.933 77.9948C533.422 79.9308 534.763 82.0157 536.103 84.1006L534.763 84.9942ZM45.9964 74.8674L44.5072 74.1228C45.6986 71.8889 46.89 69.804 48.0814 67.7191L49.4217 68.6126C48.3792 70.5486 47.1878 72.6335 45.9964 74.8674ZM525.976 73.5271C524.338 71.74 522.551 70.1019 520.764 68.4637L521.806 67.2723C523.593 68.9105 525.38 70.6975 527.168 72.4846L525.976 73.5271ZM515.105 63.996C513.169 62.6557 511.084 61.3154 508.999 59.9751L509.892 58.6348C511.977 59.9751 514.062 61.3154 515.998 62.8046L515.105 63.996ZM53.4426 62.2089L52.1023 61.3154C53.4426 59.2305 54.7829 57.1455 56.2722 55.2095L57.6125 56.1031C56.1232 58.188 54.7829 60.2729 53.4426 62.2089ZM502.744 56.4009C500.659 55.3584 498.425 54.316 496.191 53.2735L496.787 51.7843C499.021 52.8268 501.404 53.8692 503.489 54.9117L502.744 56.4009ZM489.341 50.5929C487.107 49.8483 484.724 48.9548 482.491 48.2101L482.937 46.7209C485.32 47.4655 487.703 48.2101 489.937 49.1037L489.341 50.5929ZM61.9312 50.2951L60.5909 49.2526C62.0802 47.3166 63.7183 45.3806 65.2076 43.5935L66.3989 44.636C64.9097 46.572 63.4205 48.508 61.9312 50.2951ZM475.342 46.2741C473.108 45.6784 470.726 45.0827 468.194 44.487L468.492 42.8489C470.875 43.4446 473.406 44.0403 475.64 44.636L475.342 46.2741ZM461.046 43.1467C458.663 42.7 456.28 42.2532 453.897 41.8064L454.195 40.1683C456.727 40.615 459.11 41.0618 461.492 41.5086L461.046 43.1467ZM446.6 40.764C444.217 40.4661 441.834 40.1683 439.303 39.8704L439.452 38.2323C441.983 38.5301 444.366 38.828 446.749 39.1258L446.6 40.764ZM71.4623 39.2747L70.2709 38.0834C72.058 36.2963 73.6962 34.5092 75.4833 32.871L76.5257 34.0624C74.8876 35.8495 73.1005 37.6366 71.4623 39.2747ZM432.006 38.9769C429.623 38.679 427.24 38.5301 424.708 38.2323L424.857 36.5941C427.389 36.743 429.772 37.0409 432.154 37.3387L432.006 38.9769ZM417.411 37.7855C415.028 37.6366 412.646 37.4877 410.114 37.3387L410.263 35.7006C412.794 35.8495 415.326 35.9984 417.56 36.1473L417.411 37.7855ZM402.817 36.743C400.434 36.5941 397.902 36.4452 395.519 36.2963L395.668 34.6581C398.051 34.807 400.583 34.956 402.966 35.1049L402.817 36.743ZM388.073 35.9984C385.69 35.8495 383.457 35.7006 381.074 35.7006H380.776L380.925 34.0624H381.223C383.605 34.2113 385.839 34.3603 388.222 34.3603L388.073 35.9984ZM373.479 35.2538C370.947 35.1049 368.564 34.956 366.181 34.807L366.33 33.1689C368.713 33.3178 371.245 33.4667 373.628 33.6157L373.479 35.2538ZM358.735 34.5092C356.204 34.3603 353.672 34.2113 351.438 34.0624L351.587 32.4243C353.97 32.5732 356.353 32.7221 358.884 32.871L358.735 34.5092ZM343.992 33.4667C341.46 33.3178 338.929 33.02 336.695 32.871L336.844 31.2329C339.226 31.3818 341.609 31.6796 344.141 31.8286L343.992 33.4667ZM329.397 32.1264C326.866 31.8286 324.483 31.6797 322.1 31.3818L322.249 29.7436C324.632 30.0415 327.015 30.3393 329.546 30.4883L329.397 32.1264ZM314.803 30.4883C312.271 30.1904 309.888 29.7436 307.506 29.4458L307.804 27.8076C310.186 28.2544 312.569 28.5523 315.101 28.8501L314.803 30.4883ZM82.1848 29.4458L81.1423 28.2544C83.0783 26.7652 85.0143 25.127 86.9503 23.7867L87.8439 25.127C85.9079 26.4673 83.9719 27.9566 82.1848 29.4458ZM300.208 28.1055C297.677 27.6587 295.294 27.212 292.911 26.6163L293.209 24.9781C295.592 25.4249 297.975 26.0206 300.357 26.4673L300.208 28.1055ZM285.763 24.9781C284.72 24.6803 283.678 24.3824 282.636 24.0846L278.764 23.0421L279.21 21.4039L283.082 22.4464C284.125 22.7443 285.167 23.0421 286.21 23.3399L285.763 24.9781ZM271.615 21.1061C269.232 20.5104 266.85 19.7658 264.467 19.1701L264.914 17.5319C267.296 18.1276 269.679 18.8722 272.062 19.4679L271.615 21.1061ZM93.9497 20.9572L93.0562 19.6169C95.1411 18.2766 97.226 17.0852 99.4599 15.8938L100.205 17.383C98.1196 18.4255 96.0347 19.6169 93.9497 20.9572ZM257.467 17.2341C255.085 16.6384 252.702 16.0427 250.319 15.447L250.766 13.8089C253 14.4046 255.383 15.0002 257.914 15.5959L257.467 17.2341ZM106.757 13.9578L106.013 12.4685C108.246 11.4261 110.48 10.5325 112.863 9.63901L113.459 11.1282C111.225 12.0218 108.991 13.0642 106.757 13.9578ZM243.171 13.6599C240.788 13.0642 238.405 12.4685 236.023 12.0218L236.32 10.3836C238.703 10.9793 241.086 11.4261 243.469 12.0218L243.171 13.6599ZM228.874 10.3836C226.491 9.78793 223.96 9.34116 221.726 8.89439L222.024 7.25623C224.407 7.703 226.789 8.2987 229.172 8.74547L228.874 10.3836ZM120.458 8.74547L120.011 7.25623C122.394 6.51162 124.777 5.767 127.16 5.17131L127.606 6.80946C125.075 7.40516 122.692 8.00085 120.458 8.74547ZM214.578 7.40516C212.195 6.95839 209.663 6.51162 207.429 6.06485L207.727 4.42669C210.11 4.87346 212.493 5.32023 215.024 5.767L214.578 7.40516ZM134.457 5.17131L134.159 3.53315C136.542 3.08638 138.925 2.63961 141.456 2.34177L141.754 3.97992C139.371 4.27777 136.84 4.72454 134.457 5.17131ZM200.132 5.02239C197.749 4.72454 195.218 4.27777 192.835 4.12885L192.984 2.49069C195.366 2.78854 197.898 3.08638 200.281 3.38423L200.132 5.02239ZM185.538 3.23531C183.006 2.93746 180.623 2.78854 178.24 2.63961L178.389 1.00146C180.772 1.15038 183.304 1.2993 185.686 1.59715L185.538 3.23531ZM149.051 3.08638L148.902 1.44823C151.285 1.15038 153.817 1.00146 156.2 0.852534L156.349 2.49069C153.817 2.63961 151.434 2.78854 149.051 3.08638ZM170.943 2.34177C169.156 2.34177 167.22 2.19284 165.433 2.19284C164.837 2.19284 164.242 2.19284 163.646 2.19284V0.554688C164.242 0.554688 164.837 0.554688 165.433 0.554688C167.22 0.554688 169.156 0.554688 170.943 0.703611V2.34177Z" fill="#C2BEBC"/>
<path d="M534.763 79.1863C533.572 74.8675 531.933 70.6977 529.7 66.9746L534.912 59.2306L527.764 52.0822L520.615 44.9339L512.871 50.1462C509.148 47.9124 504.978 46.2742 500.66 45.0829L498.872 35.9985H488.746H478.619L476.832 45.0829C472.513 46.2742 468.343 47.9124 464.62 50.1462L456.876 44.9339L449.728 52.0822L442.579 59.2306L447.792 66.9746C445.558 70.6977 443.92 74.8675 442.728 79.1863L433.495 81.1223V91.2491V101.376L442.579 103.163C443.771 107.482 445.409 111.652 447.643 115.375L442.431 123.119L449.579 130.267L456.727 137.415L464.471 132.203C468.194 134.437 472.364 136.075 476.683 137.266L478.47 146.351H488.597H498.723L500.511 137.266C504.829 136.075 508.999 134.437 512.722 132.203L520.466 137.415L527.615 130.267L534.763 123.119L529.551 115.375C531.784 111.652 533.423 107.482 534.614 103.163L543.698 101.376V91.2491V81.1223L534.763 79.1863ZM488.746 126.693C469.237 126.693 453.302 110.758 453.302 91.2491C453.302 71.7401 469.237 55.8053 488.746 55.8053C508.255 55.8053 524.189 71.7401 524.189 91.2491C524.04 110.758 508.255 126.693 488.746 126.693Z" fill="#73C0FF"/>
<path d="M488.745 114.183V269.51C488.745 279.786 480.406 288.126 470.13 288.126H239.299C229.023 288.126 220.684 279.786 220.684 269.51V114.183C220.684 103.908 229.023 95.5679 239.299 95.5679H470.13C480.406 95.5679 488.745 103.908 488.745 114.183Z" fill="#DAE8F5"/>
<path d="M344.886 144.117C336.695 121.034 314.655 106.886 291.423 107.631C285.764 107.779 280.105 108.822 274.594 110.758C257.766 116.864 245.554 130.267 240.64 146.202C237.215 157.222 237.215 169.434 241.385 181.05C241.831 182.241 242.278 183.432 242.725 184.475C244.959 189.538 247.788 194.155 251.213 198.176C265.659 215.153 289.487 222.301 311.676 214.26C340.27 204.282 355.162 172.859 344.886 144.117ZM307.06 201.601C290.38 207.558 272.51 202.197 261.787 189.538C259.255 186.56 257.021 183.135 255.383 179.263C255.085 178.369 254.639 177.624 254.341 176.731C251.213 167.944 251.213 158.86 253.745 150.52C257.468 138.607 266.553 128.48 279.211 124.012C283.381 122.523 287.7 121.778 291.87 121.629C309.294 121.034 325.824 131.756 331.93 149.031C339.674 170.327 328.505 193.857 307.06 201.601Z" fill="#78C2FF"/>
<path d="M253.745 150.371L240.64 146.201C245.554 130.267 257.766 116.864 274.594 110.758C280.104 108.822 285.912 107.779 291.422 107.63L291.869 121.331C287.699 121.48 283.381 122.225 279.211 123.714C266.552 128.48 257.468 138.457 253.745 150.371Z" fill="#1A598C"/>
<path d="M255.383 179.114L242.725 184.624C242.278 183.432 241.831 182.39 241.385 181.199C237.215 169.434 237.215 157.371 240.64 146.351L253.745 150.52C251.213 158.711 251.213 167.944 254.341 176.731C254.639 177.476 254.937 178.369 255.383 179.114Z" fill="#2273B5"/>
<path d="M251.213 198.325C247.788 194.304 244.958 189.687 242.725 184.624L255.383 179.114C257.021 182.986 259.255 186.411 261.787 189.389L251.213 198.325Z" fill="#4DA8F2"/>
<path d="M254.639 277.402C265.808 282.764 278.764 279.934 286.806 271.297C288.742 269.212 290.38 266.829 291.721 264.148C295.593 255.958 295.146 246.724 291.274 239.278C288.593 234.066 284.274 229.747 278.466 227.066C277.871 226.769 277.275 226.62 276.679 226.322C273.999 225.279 271.467 224.684 268.786 224.535C257.617 223.641 246.448 229.598 241.385 240.47C234.832 254.17 240.789 270.85 254.639 277.402ZM247.788 243.299C251.66 235.257 260 230.789 268.34 231.385C270.276 231.534 272.361 231.981 274.297 232.726C274.743 232.874 275.19 233.023 275.637 233.321C279.956 235.406 283.232 238.682 285.168 242.554C288.146 248.214 288.444 255.064 285.615 261.17C284.721 263.255 283.381 265.042 281.892 266.531C275.786 272.935 266.106 275.02 257.766 271.148C247.193 266.233 242.725 253.724 247.788 243.299Z" fill="#6EB2EB"/>
<path d="M285.168 242.555L291.274 239.278C295.146 246.724 295.742 255.958 291.721 264.149C290.381 266.829 288.743 269.212 286.807 271.297L281.743 266.531C283.232 265.042 284.424 263.106 285.466 261.17C288.445 255.064 287.998 248.065 285.168 242.555Z" fill="#1A598C"/>
<path d="M274.297 232.726L276.829 226.173C277.424 226.471 278.02 226.62 278.616 226.918C284.275 229.599 288.742 233.917 291.423 239.13L285.317 242.406C283.232 238.534 279.956 235.258 275.786 233.173C275.041 233.173 274.744 233.024 274.297 232.726Z" fill="#2273B5"/>
<path d="M268.786 224.386C271.467 224.535 274.147 225.28 276.679 226.173L274.147 232.726C272.211 231.981 270.126 231.535 268.19 231.386L268.786 224.386Z" fill="#4DA8F2"/>
<path d="M488.746 114.183V269.51C488.746 279.786 480.406 288.126 470.13 288.126H367.969V95.5679H470.13C480.406 95.5679 488.746 103.908 488.746 114.183Z" fill="#4DA8F2"/>
<path d="M470.726 125.352H385.84C384.5 125.352 383.457 124.31 383.457 122.97V118.055C383.457 116.715 384.5 115.672 385.84 115.672H470.726C472.066 115.672 473.109 116.715 473.109 118.055V122.97C473.109 124.31 472.066 125.352 470.726 125.352Z" fill="#E3F2FF"/>
<path d="M470.726 146.35H385.84C384.5 146.35 383.457 145.308 383.457 143.968V139.053C383.457 137.713 384.5 136.67 385.84 136.67H470.726C472.066 136.67 473.109 137.713 473.109 139.053V143.968C473.109 145.159 472.066 146.35 470.726 146.35Z" fill="#73C0FF"/>
<path d="M465.067 271.148H391.648C387.18 271.148 383.457 267.425 383.457 262.957V168.689C383.457 164.221 387.18 160.498 391.648 160.498H465.067C469.535 160.498 473.258 164.221 473.258 168.689V262.957C473.109 267.574 469.535 271.148 465.067 271.148Z" fill="#73C0FF"/>
<g opacity="0.58">
<path opacity="0.58" d="M399.391 237.79H387.626C382.116 237.79 377.648 233.322 377.648 227.812V165.86C377.648 160.35 382.116 155.882 387.626 155.882H399.391C404.901 155.882 409.369 160.35 409.369 165.86V227.812C409.369 233.322 404.901 237.79 399.391 237.79Z" fill="#E0F1FF"/>
</g>
<path d="M374.968 86.6323H170.05V87.9726H374.968V86.6323Z" fill="#78C2FF"/>
<path d="M190.452 75.463C184.346 75.463 179.432 70.5485 179.432 64.4427C179.432 58.3368 184.346 53.4224 190.452 53.4224C196.558 53.4224 201.472 58.3368 201.472 64.4427C201.472 70.5485 196.558 75.463 190.452 75.463ZM190.452 55.0605C185.24 55.0605 181.07 59.2304 181.07 64.4427C181.07 69.655 185.24 73.8248 190.452 73.8248C195.664 73.8248 199.834 69.655 199.834 64.4427C199.834 59.3793 195.664 55.0605 190.452 55.0605Z" fill="#4DA8F2"/>
<path d="M161.114 200.559C161.114 200.559 171.39 202.346 171.39 211.132C171.539 219.77 163.497 232.428 158.434 231.535C153.221 230.641 147.413 226.025 147.562 220.663C147.711 215.451 149.201 208.452 151.583 204.58C153.966 200.708 158.136 200.41 161.114 200.559Z" fill="#EEA886"/>
<path d="M147.86 216.642C147.86 216.642 147.86 218.429 151.435 219.77C155.009 221.11 161.412 219.174 163.051 219.472C164.689 219.77 165.136 219.025 165.136 219.025L165.284 220.812L166.625 221.706C166.625 221.706 167.518 217.089 170.497 216.642C173.326 216.196 175.858 202.941 163.348 200.559C163.348 200.559 154.115 198.027 151.732 202.792C149.35 207.409 147.414 213.366 147.86 216.642Z" fill="#E8734D"/>
<g opacity="0.82">
<path opacity="0.82" d="M224.407 367.651H143.989C137.436 367.651 131.926 362.289 131.926 355.588V275.169C131.926 268.617 137.287 263.106 143.989 263.106H224.407C230.96 263.106 236.47 268.468 236.47 275.169V355.588C236.321 362.289 230.96 367.651 224.407 367.651Z" fill="#87C9FF"/>
</g>
<path d="M228.279 105.992V164.37C228.279 170.178 223.662 174.795 217.854 174.795H134.457C128.649 174.795 124.032 170.178 124.032 164.37V105.992C124.032 100.184 128.649 95.5679 134.457 95.5679H217.854C223.513 95.5679 228.279 100.333 228.279 105.992Z" fill="#E3F2FF"/>
<path d="M225.896 289.763H190.304C188.963 289.763 187.921 288.721 187.921 287.381V281.126C187.921 279.786 188.963 278.743 190.304 278.743H225.896C227.237 278.743 228.279 279.786 228.279 281.126V287.381C228.428 288.721 227.237 289.763 225.896 289.763Z" fill="#E3F2FF"/>
<path d="M222.769 354.992H193.58C190.453 354.992 187.921 352.46 187.921 349.333V301.082C187.921 297.955 190.453 295.423 193.58 295.423H222.769C225.896 295.423 228.428 297.955 228.428 301.082V349.333C228.428 352.46 225.896 354.992 222.769 354.992Z" fill="#E3F2FF"/>
<path d="M155.455 310.315C157.242 310.911 159.178 311.209 161.263 311.358C167.369 311.507 172.73 308.528 176.304 304.061C178.687 300.933 180.176 297.061 180.176 292.891C180.176 292.445 180.176 291.998 180.176 291.7C180.027 289.764 179.729 287.977 179.134 286.339C176.602 279.19 169.752 274.127 161.859 274.127C157.54 274.127 153.519 275.467 150.392 277.85C145.924 281.275 143.094 286.488 142.945 292.444C142.648 300.635 148.009 307.784 155.455 310.315ZM147.413 292.444C147.413 287.977 149.647 283.956 152.923 281.573C155.306 279.786 158.285 278.595 161.561 278.744C167.518 278.892 172.581 282.616 174.517 287.977C174.964 289.168 175.262 290.657 175.262 291.998C175.262 292.296 175.262 292.593 175.262 292.891C175.262 296.019 174.07 298.997 172.283 301.231C169.752 304.507 165.582 306.741 161.114 306.592C159.625 306.592 158.136 306.294 156.795 305.848C151.285 303.912 147.413 298.699 147.413 292.444Z" fill="#E3F2FF"/>
<path d="M172.432 301.082L176.155 303.912C172.73 308.379 167.22 311.209 161.114 311.209C159.178 311.209 157.242 310.911 155.306 310.166L156.795 305.699C158.135 306.145 159.624 306.443 161.114 306.443C165.73 306.592 169.9 304.507 172.432 301.082Z" fill="#1A598C"/>
<path d="M175.411 291.849L180.028 291.551C180.028 291.998 180.028 292.444 180.028 292.742C180.028 296.912 178.538 300.784 176.156 303.911L172.433 301.082C174.22 298.699 175.262 295.87 175.411 292.742C175.411 292.444 175.411 292.146 175.411 291.849Z" fill="#2273B5"/>
<path d="M175.411 291.849C175.262 290.509 175.113 289.168 174.666 287.828L178.985 286.19C179.58 287.828 180.027 289.615 180.027 291.551L175.411 291.849Z" fill="#2273B5"/>
<path d="M150.242 277.701C153.37 275.318 157.39 273.829 161.709 273.978C169.751 274.127 176.453 279.19 178.984 286.19L174.666 287.828C172.73 282.467 167.666 278.744 161.709 278.595C158.433 278.595 155.454 279.637 153.072 281.424L150.242 277.701Z" fill="#4DA8F2"/>
<path d="M23.9561 130.863L46.4435 95.7168L35.1253 100.929L23.9561 130.863Z" fill="#D6D6D6"/>
<path d="M23.9561 130.863L25.2964 109.716L33.4871 105.099L23.9561 130.863Z" fill="#E8E8E8"/>
<path d="M41.3801 103.908L44.0607 107.631L23.9561 130.863L41.3801 103.908Z" fill="#C2C2C2"/>
<path d="M180.177 268.616C180.177 268.616 181.219 268.467 181.815 267.872C182.857 266.829 182.857 264.595 184.942 264.447C187.027 264.298 188.814 270.403 188.516 271.744C188.218 273.084 185.538 273.978 181.219 273.829C176.9 273.68 180.177 268.616 180.177 268.616Z" fill="#EEA886"/>
<path d="M184.198 264.745C184.198 264.745 186.878 263.255 190.155 262.064C192.984 261.021 196.558 260.277 196.856 260.724C197.75 261.766 194.473 262.511 191.644 263.851C189.112 265.042 189.559 264.745 189.559 264.745C189.559 264.745 189.41 264.745 192.389 264C195.516 263.255 198.941 262.66 199.388 263.255C199.537 263.553 199.984 264.596 198.643 264.447C199.388 264.298 199.239 264.149 199.239 264.447C199.537 265.936 195.069 267.723 193.282 268.468C194.622 267.872 195.814 267.574 195.367 268.765C194.92 269.957 188.368 272.34 186.134 273.382C183.602 274.722 184.198 264.745 184.198 264.745Z" fill="#EEA886"/>
<path d="M135.649 226.174C135.649 226.174 129.245 225.727 124.778 226.174C120.31 226.62 114.055 230.344 110.183 231.386C106.46 232.428 97.2268 238.534 97.5246 239.428C97.8225 240.321 101.248 250.299 107.8 258.341C113.459 265.34 135.649 226.174 135.649 226.174Z" fill="#D4D8E8"/>
<path d="M121.799 230.194C121.799 230.194 114.949 235.258 112.417 240.023C110.034 244.64 109.141 250.299 109.141 250.299L121.799 230.194Z" fill="#A9ADBA"/>
<path d="M127.011 382.543C127.011 382.543 128.947 384.628 130.138 385.224C131.329 385.819 144.881 388.053 145.775 389.245C146.669 390.287 146.669 394.755 143.243 394.755C139.669 394.755 128.053 394.755 125.968 394.755C124.032 394.755 115.693 396.542 114.799 394.755C113.905 392.968 114.054 384.926 115.544 382.99C117.182 381.054 127.011 382.543 127.011 382.543Z" fill="#1C4154"/>
<path d="M126.564 380.011L127.011 382.394C127.011 382.394 123.437 384.032 115.544 382.841V380.458L126.564 380.011Z" fill="#2A617D"/>
<path d="M43.9122 375.692C43.9122 375.692 42.4229 377.479 41.6783 379.713C41.2315 381.203 38.8488 388.053 39.8912 389.691C40.9337 391.329 48.6777 391.627 52.5497 391.031C56.4217 390.436 64.9103 391.776 65.8039 389.989C66.6974 388.351 67.1442 385.819 64.6125 384.926C62.0808 384.032 56.2728 381.5 55.2303 378.969C54.0389 376.437 43.9122 375.692 43.9122 375.692Z" fill="#1C4154"/>
<path d="M56.1238 376.288L55.0814 379.118C55.0814 379.118 43.9121 378.224 43.9121 375.841L47.4863 370.778L56.1238 376.288Z" fill="#2A617D"/>
<path d="M147.562 221.408C147.562 221.408 141.307 226.62 139.52 226.322C137.733 225.875 145.626 237.491 145.626 237.491C145.626 237.491 153.072 230.194 154.859 229.896C156.497 229.598 147.562 221.408 147.562 221.408Z" fill="#EEA886"/>
<path d="M148.009 242.257C145.925 243.598 145.478 243.895 145.776 250.001C146.073 256.107 148.456 260.873 148.754 262.511C148.903 264.149 152.328 280.679 153.222 281.573C154.115 282.467 165.136 280.382 167.37 279.637C170.646 278.595 184.942 273.829 184.942 273.829L181.815 267.276C181.815 267.276 163.944 271.297 163.349 269.808C162.753 268.468 161.413 256.703 160.817 254.171C160.37 251.639 161.115 247.618 158.136 241.513C155.456 236.3 148.009 242.257 148.009 242.257Z" fill="#D4D8E8"/>
<path d="M127.011 287.679C127.011 287.679 130.734 291.7 131.926 293.04C139.223 301.976 149.052 318.506 150.243 321.336C151.435 324.165 144.138 344.568 141.159 351.716C139.521 355.439 129.096 381.203 129.394 381.65C129.692 382.245 118.374 382.543 113.162 380.011C113.162 380.011 120.459 358.269 122.097 354.099C124.48 347.695 132.522 329.824 132.819 328.186C133.117 326.399 119.714 312.251 115.246 309.571C110.779 306.89 99.9073 297.21 98.7159 296.019C97.5246 294.827 90.5252 291.551 91.1209 285.296C91.7165 279.041 96.4821 274.127 96.4821 274.127L127.011 287.679Z" fill="#326EA0"/>
<path d="M107.055 303.167C107.055 303.167 106.31 304.954 105.417 307.486C103.332 312.996 99.9068 321.782 99.3111 323.271C98.4176 325.356 94.3966 334.143 92.4606 335.93C90.5246 337.717 58.0593 376.586 57.9104 377.033C57.7615 377.331 45.6987 371.076 44.9541 368.693C44.9541 368.693 62.527 345.759 65.2077 342.334C67.8883 338.908 73.5474 333.994 75.4834 325.952C77.4194 317.91 90.9714 287.232 90.9714 286.189C90.9714 286.189 93.2052 276.807 96.3326 273.829C99.46 270.999 111.076 274.276 112.863 280.381C114.799 286.338 107.055 303.167 107.055 303.167Z" fill="#326EA0"/>
<path d="M139.074 226.173L141.755 225.131C141.755 225.131 148.307 226.62 152.179 231.981L151.882 233.619C151.733 233.619 141.606 231.386 139.074 226.173Z" fill="#D4D8E8"/>
<path d="M149.201 264.745C148.605 265.489 148.307 266.085 148.009 266.234C147.86 266.383 147.562 266.532 147.265 266.829L146.967 256.852C146.967 256.852 148.158 260.724 148.456 261.319C148.605 261.915 149.201 264.745 149.201 264.745Z" fill="#A9ADBA"/>
<path d="M107.056 303.167C107.056 303.167 106.311 304.954 105.417 307.486C103.183 304.954 98.1201 295.274 98.1201 295.274C98.418 295.572 99.4604 296.465 99.7583 296.763C100.056 297.061 107.056 303.167 107.056 303.167Z" fill="#215B8A"/>
<path d="M163.646 218.727C163.944 217.983 163.348 215.153 161.412 216.791C159.625 218.429 159.625 222.153 160.667 222.45C161.71 222.748 163.05 220.663 163.646 218.727Z" fill="#EEA886"/>
<path d="M156.646 202.643C156.646 202.643 147.711 196.389 147.711 217.834L156.646 202.643Z" fill="#E8734D"/>
<path d="M149.2 264.745C148.605 265.489 148.307 266.085 148.009 266.234C147.86 266.383 147.562 266.532 147.264 266.83C144.733 268.766 139.074 272.787 136.542 274.127C133.712 275.765 128.202 288.87 128.202 288.87C128.202 288.87 102.438 287.083 96.4814 273.829C96.4814 273.829 100.651 264.447 104.523 258.937C108.395 253.427 116.735 233.471 121.203 230.492C125.67 227.663 129.393 225.876 138.18 226.025C146.966 226.323 151.732 233.173 151.732 233.173C151.732 233.173 158.434 240.321 159.029 244.044C159.625 247.619 152.477 260.277 149.2 264.745Z" fill="#D4D8E8"/>
<path d="M228.279 105.992L228.13 111.801H123.734L123.883 105.992C123.883 100.184 128.5 95.5679 134.308 95.5679H217.705C223.513 95.5679 228.279 100.333 228.279 105.992Z" fill="#4DA8F2"/>
<path d="M156.647 168.242H135.649C132.968 168.242 130.734 166.008 130.734 163.328V121.331C130.734 118.651 132.968 116.417 135.649 116.417H156.647C159.328 116.417 161.561 118.651 161.561 121.331V163.179C161.561 166.008 159.328 168.242 156.647 168.242ZM135.649 118.055C133.862 118.055 132.373 119.544 132.373 121.331V163.179C132.373 164.966 133.862 166.455 135.649 166.455H156.647C158.434 166.455 159.923 164.966 159.923 163.179V121.331C159.923 119.544 158.434 118.055 156.647 118.055H135.649Z" fill="#78C2FF"/>
<path d="M218.748 121.629H168.709C167.816 121.629 167.071 120.885 167.071 119.991V118.949C167.071 118.055 167.816 117.311 168.709 117.311H218.748C219.641 117.311 220.386 118.055 220.386 118.949V119.991C220.386 120.885 219.641 121.629 218.748 121.629Z" fill="#78C2FF"/>
<path d="M218.748 130.416H168.709C167.816 130.416 167.071 129.671 167.071 128.778V127.735C167.071 126.842 167.816 126.097 168.709 126.097H218.748C219.641 126.097 220.386 126.842 220.386 127.735V128.778C220.386 129.82 219.641 130.416 218.748 130.416Z" fill="#78C2FF"/>
<path d="M340.269 240.768H307.208C305.868 240.768 304.677 239.577 304.677 238.236V233.173C304.677 231.833 305.868 230.641 307.208 230.641H340.269C341.61 230.641 342.801 231.833 342.801 233.173V238.236C342.801 239.577 341.61 240.768 340.269 240.768Z" fill="#6EB2EB"/>
<path d="M340.269 257.299H307.208C305.868 257.299 304.677 256.107 304.677 254.767V249.704C304.677 248.363 305.868 247.172 307.208 247.172H340.269C341.61 247.172 342.801 248.363 342.801 249.704V254.767C342.801 256.107 341.61 257.299 340.269 257.299Z" fill="#4DA8F2"/>
<path d="M340.269 273.829H307.208C305.868 273.829 304.677 272.638 304.677 271.297V266.234C304.677 264.894 305.868 263.702 307.208 263.702H340.269C341.61 263.702 342.801 264.894 342.801 266.234V271.297C342.801 272.786 341.61 273.829 340.269 273.829Z" fill="#2273B5"/>
<path d="M136.096 108.822C138.563 108.822 140.563 106.822 140.563 104.354C140.563 101.887 138.563 99.8867 136.096 99.8867C133.628 99.8867 131.628 101.887 131.628 104.354C131.628 106.822 133.628 108.822 136.096 108.822Z" fill="#E3F2FF"/>
<path d="M481.746 261.17C481.746 261.17 500.213 267.127 504.382 266.085C506.616 265.489 510.19 262.362 513.467 258.937C514.062 258.341 514.509 257.745 515.105 257.15C518.679 253.129 521.658 249.406 521.658 249.406C521.658 249.406 530.593 238.981 523.445 234.215C523.445 234.215 520.317 234.513 517.934 237.045C515.552 239.577 513.318 243.746 512.722 245.087C512.126 246.427 503.34 259.086 502.893 259.383C502.446 259.681 498.574 258.639 495.596 258.341C490.533 257.894 483.086 255.362 483.086 255.362L481.746 261.17Z" fill="#2273B5"/>
<path d="M507.064 374.799C507.064 374.799 504.681 378.969 503.341 379.862C501.554 380.905 498.277 384.33 497.086 384.479C495.895 384.628 491.725 385.372 492.469 387.755C493.065 389.691 503.192 389.393 504.383 388.5C505.575 387.457 508.851 384.032 510.34 384.032C511.68 384.181 511.234 389.095 511.234 389.095H512.723C512.723 389.095 513.17 384.181 513.319 383.436C513.467 380.905 511.68 379.118 511.68 377.777C511.531 376.437 511.531 375.246 511.531 375.246L507.064 374.799Z" fill="#16202E"/>
<path d="M497.383 384.33C497.383 384.33 500.659 385.521 503.34 384.032C505.871 382.543 510.786 380.309 512.573 380.309C512.573 380.309 511.679 377.479 511.679 377.033C511.679 376.735 511.531 375.246 511.531 375.246L507.212 374.501C507.212 374.501 504.382 378.522 503.191 379.564C501.851 380.458 498.723 382.99 497.383 384.33Z" fill="#EEA886"/>
<path d="M547.57 378.671C547.57 378.671 547.123 381.649 546.677 382.394C546.23 383.139 545.039 387.16 544.443 387.904C543.847 388.649 542.656 394.308 544.443 395.053C546.23 395.797 550.549 396.84 551.889 394.606C553.378 392.372 553.527 390.138 553.229 388.351C552.931 386.564 551.293 378.671 551.293 377.926C551.442 377.033 547.57 378.671 547.57 378.671Z" fill="#EEA886"/>
<path d="M545.187 386.415C545.187 386.415 545.038 390.883 548.315 390.883C551.591 390.883 553.08 386.862 553.08 386.862C553.08 386.862 554.272 388.798 553.08 392.968C551.889 397.138 547.272 396.244 546.23 396.095C545.187 395.946 540.124 394.606 545.187 386.415Z" fill="#16202E"/>
<path d="M542.21 278.594C542.21 278.594 546.528 284.104 548.018 287.679C549.507 291.253 552.038 299.295 551.741 305.4C551.443 311.506 549.358 323.122 549.954 325.654C550.549 328.335 551.145 333.696 551.741 335.483C552.336 337.27 554.868 342.78 555.166 348.29C555.464 353.8 553.379 378.224 553.528 380.458C553.677 382.692 546.231 381.351 546.231 381.351C546.231 381.351 546.082 359.46 545.188 355.588C544.294 351.865 543.401 338.908 542.507 338.015C541.763 337.121 539.678 327.292 539.529 325.803C539.38 324.314 530.445 297.508 529.849 293.04C529.402 288.423 518.084 278.594 518.084 278.594C518.084 278.594 529.104 274.275 542.21 278.594Z" fill="#1A598C"/>
<path d="M514.211 375.99C515.849 375.693 520.019 351.12 519.572 346.802C519.126 342.483 518.53 333.101 520.019 329.378C520.913 326.846 526.87 314.187 530.742 305.401C531.337 304.209 531.784 303.018 532.231 301.976C533.422 299.146 534.316 297.061 534.316 296.614C534.465 294.976 539.826 265.936 518.232 278.893C518.232 278.893 518.083 281.126 517.785 282.02C517.488 282.913 511.68 304.358 511.084 312.549C510.488 320.74 508.999 327.739 508.701 329.526C508.403 331.314 508.999 337.122 509.446 338.76C509.892 340.249 506.169 374.501 505.872 375.246C505.723 375.842 512.573 376.288 514.211 375.99Z" fill="#1A598C"/>
<path d="M526.721 232.726C526.721 232.726 522.551 234.662 521.211 234.96C519.722 235.258 514.212 242.406 513.318 245.087C512.276 247.768 513.318 251.64 515.254 256.256C517.19 260.873 515.403 262.362 516.297 266.979C517.19 271.595 517.935 281.424 517.786 283.956C517.637 286.488 540.869 286.934 546.081 282.318C546.081 282.318 540.72 274.276 540.124 273.233C539.38 272.042 539.975 265.936 540.571 264.298C541.167 262.66 545.634 249.555 545.634 249.555C545.634 249.555 548.762 238.683 545.634 236.3C542.954 234.215 535.657 233.471 534.316 233.024C533.274 232.577 529.402 232.428 526.721 232.726Z" fill="#EDDAD3"/>
<path d="M525.53 241.959L522.998 238.981L525.232 231.237C525.083 231.237 525.828 235.556 525.53 241.959Z" fill="#D6C5BE"/>
<path d="M524.785 228.109C524.785 228.109 525.53 235.704 525.381 238.087C525.381 238.087 529.7 242.406 534.465 233.173C534.465 233.173 532.38 229.301 534.018 224.088C535.657 218.876 524.785 228.109 524.785 228.109Z" fill="#EEA886"/>
<path d="M525.529 237.938V241.959L530.444 238.236L525.529 237.938Z" fill="#EEA886"/>
<path d="M525.529 241.959L527.465 239.428L534.316 232.577L536.55 234.662L525.529 241.959Z" fill="#D6C5BE"/>
<path d="M533.274 287.679C535.21 296.912 549.208 286.636 549.208 286.636C549.208 286.636 540.124 271.446 543.698 259.234C543.698 259.086 543.698 259.085 543.847 258.937C544.145 258.192 544.294 257.447 544.592 256.703C544.592 256.554 544.741 256.405 544.741 256.256C545.485 253.873 546.23 251.937 546.677 250.299C548.315 245.236 548.762 243.597 548.762 243.597C548.762 243.597 548.017 235.853 544.294 234.96C540.422 234.066 536.401 233.322 536.401 233.322C536.401 233.322 529.699 241.81 529.402 245.682C528.955 249.703 531.486 278.446 533.274 287.679Z" fill="#2273B5"/>
<path d="M512.723 246.874C512.723 246.874 512.276 252.235 515.999 259.086C515.999 259.086 515.85 268.468 515.85 271.595C515.701 274.871 514.957 287.083 514.957 287.083L518.978 289.466C519.722 289.913 520.765 289.317 520.616 288.423C519.424 279.041 515.85 243.597 523.743 234.066L520.169 235.258C520.169 235.407 512.723 243.151 512.723 246.874Z" fill="#2273B5"/>
<path d="M522.998 238.981L519.871 239.874L525.083 231.237L522.998 238.981Z" fill="#FAE6DE"/>
<path d="M527.466 239.428L530.444 243.151L536.252 233.322L534.316 232.577L527.466 239.428Z" fill="#FAE6DE"/>
<path d="M527.764 203.686C524.786 203.388 518.084 204.58 516.595 212.472C516.595 212.472 516.744 214.706 517.19 216.344C517.637 218.132 515.85 222.897 516.297 223.195C516.744 223.493 518.233 223.791 518.233 223.791C518.233 223.791 519.722 229.301 521.658 229.301C523.594 229.301 530.891 228.258 534.614 221.557C538.338 215.302 539.976 204.877 527.764 203.686Z" fill="#EEA886"/>
<path d="M516.594 212.621C516.594 212.621 521.36 216.195 526.125 217.089C530.891 217.983 533.571 226.322 533.571 226.322C533.571 226.322 541.613 214.259 536.103 206.367C530.444 198.622 515.998 203.239 516.594 212.621Z" fill="#344052"/>
<path d="M528.21 216.94C528.21 216.047 529.402 214.706 530.891 216.047C532.38 217.387 530.146 221.706 528.806 221.259C527.615 220.663 528.061 217.834 528.21 216.94Z" fill="#EEA886"/>
<path d="M524.785 229.152C524.934 229.747 524.934 230.492 525.083 231.088C529.104 228.854 531.189 225.875 531.189 225.875C528.955 227.811 524.785 229.152 524.785 229.152Z" fill="#A77860"/>
<g opacity="0.86">
<path opacity="0.86" d="M438.856 279.935L498.723 280.233C502 280.233 504.68 277.552 504.68 274.276L504.829 234.364C504.829 231.088 502.149 228.407 498.872 228.407L439.005 228.109C435.729 228.109 433.048 230.79 433.048 234.066L432.899 273.978C433.048 277.254 435.58 279.935 438.856 279.935Z" fill="#E0F1FF"/>
</g>
<path d="M465.514 275.914L496.043 276.063C498.128 276.063 499.915 274.276 499.915 272.191L500.064 238.236C500.064 236.151 498.277 234.364 496.192 234.364L465.663 234.215C463.578 234.215 461.791 236.002 461.791 238.087L461.642 272.042C461.642 274.127 463.429 275.914 465.514 275.914Z" fill="#A1D4FF"/>
<path d="M440.643 275.914L458.216 276.063C458.812 276.063 459.258 275.616 459.258 275.02V270.851C459.258 270.255 458.812 269.808 458.216 269.808L440.643 269.659C440.047 269.659 439.601 270.106 439.601 270.702V274.871C439.601 275.467 440.047 275.914 440.643 275.914Z" fill="#A1D4FF"/>
<path d="M440.196 267.574L458.812 267.723C459.11 267.723 459.407 267.425 459.407 267.127V266.383C459.407 266.085 459.11 265.787 458.812 265.787L440.196 265.638C439.898 265.638 439.601 265.936 439.601 266.234V266.979C439.601 267.425 439.898 267.574 440.196 267.574Z" fill="#A1D4FF"/>
<path d="M507.212 263.553C507.212 263.553 506.467 263.702 506.021 263.404C505.127 262.958 504.531 261.468 503.042 261.915C501.702 262.362 502 266.979 502.446 267.723C503.042 268.468 504.978 268.468 507.808 267.276C510.637 266.085 507.212 263.553 507.212 263.553Z" fill="#EEA886"/>
<path d="M503.489 261.915C503.489 261.915 501.255 261.617 498.872 261.617C496.638 261.617 494.255 261.915 494.106 262.362C493.958 262.809 496.34 262.66 498.425 262.809C500.361 262.958 500.063 263.255 500.063 263.255C500.063 263.255 500.212 263.106 497.978 263.404C495.596 263.702 493.213 264.149 493.213 264.745C493.213 265.042 493.213 265.191 494.106 265.191C493.66 265.34 493.511 265.489 493.66 265.638C493.809 266.681 497.234 266.83 498.723 266.83C497.681 266.83 496.936 266.83 497.383 267.574C497.978 268.319 502.893 268.17 504.68 268.319C506.318 268.319 503.489 261.915 503.489 261.915Z" fill="#EEA886"/>
<path d="M542.01 219.239C543.499 215.851 542.631 212.192 540.071 211.066C537.511 209.941 534.228 211.776 532.739 215.164C531.249 218.552 532.117 222.212 534.678 223.337C537.238 224.462 540.52 222.627 542.01 219.239Z" fill="#344052"/>
<path d="M544.89 235.407C544.89 235.407 541.018 236.151 539.231 239.13C537.295 242.108 535.359 246.278 535.061 247.767C534.763 249.257 527.466 262.511 527.168 262.958C526.721 263.255 522.849 262.958 519.722 263.255C514.659 263.702 506.915 262.511 506.915 262.511L506.766 268.319C506.766 268.319 525.977 270.85 529.998 269.063C534.912 266.83 546.677 250.299 546.677 250.299C546.677 250.299 552.783 238.683 544.89 235.407Z" fill="#2273B5"/>
<path d="M537.146 262.362L544.592 256.405C545.336 254.022 546.081 252.086 546.528 250.448C546.677 250.299 539.082 260.277 537.146 262.362Z" fill="#1A598C"/>
<path d="M513.467 258.936C514.063 258.341 514.51 257.745 515.105 257.149C515.105 257.149 513.02 251.788 512.872 249.405C512.872 249.554 512.425 254.618 513.467 258.936Z" fill="#1A598C"/>
<path d="M456.578 239.13C455.238 235.407 451.813 233.173 448.09 233.322C447.196 233.322 446.303 233.471 445.409 233.769C442.728 234.662 440.792 236.896 440.048 239.428C439.452 241.215 439.452 243.151 440.197 244.938C440.197 245.087 440.346 245.236 440.346 245.534C440.644 246.278 441.09 247.023 441.686 247.768C443.92 250.448 447.792 251.64 451.366 250.299C455.834 248.661 458.217 243.747 456.578 239.13ZM450.621 248.214C447.941 249.108 445.111 248.363 443.473 246.278C443.026 245.831 442.728 245.236 442.431 244.64C442.431 244.491 442.282 244.342 442.282 244.193C441.835 242.853 441.835 241.364 442.133 240.023C442.728 238.087 444.218 236.449 446.154 235.854C446.749 235.556 447.494 235.556 448.239 235.407C451.068 235.258 453.6 237.045 454.642 239.726C455.834 243.3 454.047 247.023 450.621 248.214Z" fill="#73C0FF"/>
<path d="M442.133 240.172L440.048 239.577C440.792 237.045 442.728 234.96 445.409 233.917C446.303 233.62 447.196 233.471 448.09 233.471V235.705C447.345 235.705 446.749 235.853 446.005 236.151C444.218 236.598 442.728 238.236 442.133 240.172Z" fill="#73C0FF"/>
<path d="M442.43 244.64L440.494 245.534C440.345 245.385 440.345 245.236 440.345 244.938C439.75 243.002 439.75 241.066 440.196 239.428L442.281 240.023C441.835 241.364 441.835 242.853 442.43 244.193C442.281 244.491 442.281 244.64 442.43 244.64Z" fill="#73C0FF"/>
<path d="M441.686 247.768C441.09 247.172 440.644 246.427 440.346 245.534L442.282 244.64C442.58 245.236 442.877 245.832 443.324 246.278L441.686 247.768Z" fill="#73C0FF"/>
<path d="M446.75 254.469C446.154 252.979 444.814 252.086 443.325 252.086C443.027 252.086 442.58 252.235 442.282 252.235C441.24 252.682 440.346 253.575 440.049 254.618C439.751 255.362 439.751 256.107 440.049 256.851C440.049 257 440.049 257 440.198 257.149C440.346 257.447 440.495 257.745 440.793 258.043C441.687 259.085 443.325 259.681 444.814 259.085C446.452 258.49 447.495 256.405 446.75 254.469ZM444.367 258.192C443.325 258.639 442.133 258.192 441.389 257.447C441.24 257.298 441.091 257 440.942 256.703V256.554C440.793 255.958 440.793 255.362 440.942 254.915C441.24 254.171 441.836 253.426 442.58 253.128C442.878 252.979 443.176 252.979 443.474 252.979C444.665 252.979 445.708 253.575 446.154 254.767C446.452 256.256 445.708 257.745 444.367 258.192Z" fill="#73C0FF"/>
<path d="M440.793 254.915L439.899 254.618C440.197 253.575 441.091 252.682 442.133 252.235C442.431 252.086 442.878 252.086 443.176 252.086V252.979C442.878 252.979 442.58 252.979 442.282 253.128C441.687 253.426 441.091 254.171 440.793 254.915Z" fill="#73C0FF"/>
<path d="M440.942 256.852L440.048 257.149C440.048 257.149 440.048 257 439.899 256.852C439.601 256.107 439.601 255.362 439.899 254.618L440.793 254.916C440.644 255.511 440.644 256.107 440.793 256.554C440.942 256.703 440.942 256.703 440.942 256.852Z" fill="#73C0FF"/>
<path d="M440.644 258.043C440.346 257.745 440.197 257.447 440.048 257.149L440.941 256.852C441.09 257.149 441.239 257.298 441.388 257.596L440.644 258.043Z" fill="#73C0FF"/>
<path d="M174.816 143.968H168.412V167.349H174.816V143.968Z" fill="#78C2FF"/>
<path d="M183.75 141.585H177.347V167.349H183.75V141.585Z" fill="#78C2FF"/>
<path d="M192.984 146.5H186.58V167.349H192.984V146.5Z" fill="#78C2FF"/>
<path d="M202.069 136.819H195.665V167.349H202.069V136.819Z" fill="#78C2FF"/>
<path d="M211.748 139.947H205.345V167.349H211.748V139.947Z" fill="#78C2FF"/>
</svg>
